<?xml version="1.0" encoding="UTF-8" standalone="no"?>
<!-- Created with Inkscape (http://www.inkscape.org/) -->

<svg
   width="5.8197498mm"
   height="5.6772184mm"
   viewBox="0 0 5.8197498 5.6772184"
   version="1.1"
   id="svg1"
   inkscape:version="1.4.2 (2aeb623e1d, 2025-05-12)"
   sodipodi:docname="git-hub.svg"
   xmlns:inkscape="http://www.inkscape.org/namespaces/inkscape"
   xmlns:sodipodi="http://sodipodi.sourceforge.net/DTD/sodipodi-0.dtd"
   xmlns="http://www.w3.org/2000/svg"
   xmlns:svg="http://www.w3.org/2000/svg">
  <sodipodi:namedview
     id="namedview1"
     pagecolor="#ffffff"
     bordercolor="#000000"
     borderopacity="0.25"
     inkscape:showpageshadow="2"
     inkscape:pageopacity="0.0"
     inkscape:pagecheckerboard="0"
     inkscape:deskcolor="#d1d1d1"
     inkscape:document-units="mm"
     inkscape:zoom="0.7180275"
     inkscape:cx="-34.817608"
     inkscape:cy="19.497861"
     inkscape:window-width="1033"
     inkscape:window-height="1011"
     inkscape:window-x="0"
     inkscape:window-y="32"
     inkscape:window-maximized="0"
     inkscape:current-layer="layer1" />
  <defs
     id="defs1" />
  <g
     inkscape:label="Layer 1"
     inkscape:groupmode="layer"
     id="layer1"
     transform="translate(-114.3,-143.40417)">
    <path
       d="m 117.21042,143.40417 c -1.60801,0 -2.91042,1.30241 -2.91042,2.91041 0,1.28786 0.83311,2.37562 1.99,2.76125 0.14552,0.0255 0.20009,-0.0618 0.20009,-0.13825 0,-0.0691 -0.004,-0.29831 -0.004,-0.54205 -0.73124,0.13459 -0.92042,-0.17827 -0.97863,-0.34197 -0.0327,-0.0837 -0.17462,-0.34198 -0.29831,-0.41111 -0.10187,-0.0546 -0.24739,-0.18918 -0.004,-0.1928 0.22919,-0.004 0.3929,0.211 0.44747,0.29831 0.26194,0.44019 0.68031,0.3165 0.84766,0.24011 0.0255,-0.18917 0.10187,-0.31652 0.18554,-0.38928 -0.64757,-0.0728 -1.32424,-0.32377 -1.32424,-1.437 0,-0.31652 0.11278,-0.57845 0.29832,-0.78218 -0.0291,-0.0728 -0.13097,-0.37108 0.0291,-0.77126 0,0 0.24375,-0.0764 0.80037,0.29832 0.23283,-0.0655 0.48022,-0.0982 0.7276,-0.0982 0.24739,0 0.49477,0.0328 0.72761,0.0982 0.55663,-0.37835 0.80036,-0.29832 0.80036,-0.29832 0.16007,0.40018 0.0582,0.6985 0.0291,0.77126 0.18555,0.20373 0.29831,0.46203 0.29831,0.78218 0,1.11686 -0.68029,1.36424 -1.32786,1.437 0.10549,0.091 0.19645,0.26559 0.19645,0.53843 0,0.38928 -0.004,0.70215 -0.004,0.80036 0,0.0764 0.0546,0.16735 0.20011,0.13825 1.14961,-0.38563 1.9827,-1.47704 1.9827,-2.76125 0,-1.608 -1.30241,-2.91041 -2.91041,-2.91041 z"
       id="path1"
       style="stroke-width:0.264583" />
  </g>
</svg>
